<svg xmlns="http://www.w3.org/2000/svg" viewBox="0 0 32 32" width="32" height="32">
  <defs>
    <linearGradient id="heartGradient" x1="0%" y1="0%" x2="100%" y2="100%">
      <stop offset="0%" style="stop-color:#ff6b9d;stop-opacity:1" />
      <stop offset="50%" style="stop-color:#f472b6;stop-opacity:1" />
      <stop offset="100%" style="stop-color:#ec4899;stop-opacity:1" />
    </linearGradient>
    <linearGradient id="sparkleGradient" x1="0%" y1="0%" x2="100%" y2="100%">
      <stop offset="0%" style="stop-color:#fbbf24;stop-opacity:1" />
      <stop offset="100%" style="stop-color:#f59e0b;stop-opacity:1" />
    </linearGradient>
  </defs>
  
  <!-- Background circle -->
  <circle cx="16" cy="16" r="15" fill="url(#heartGradient)" stroke="#fff" stroke-width="2"/>
  
  <!-- Main heart -->
  <path d="M16 26c-1 0-8-5-8-12 0-3 2-5 5-5 2 0 3 1 3 3 0-2 1-3 3-3 3 0 5 2 5 5 0 7-7 12-8 12z" 
        fill="#fff" opacity="0.95"/>
  
  <!-- Smaller heart (couple) -->
  <path d="M20 10c-0.5 0-3-2-3-5 0-1.5 1-2.5 2.5-2.5 1 0 1.5 0.5 1.5 1.5 0-1 0.5-1.5 1.5-1.5 1.5 0 2.5 1 2.5 2.5 0 3-2.5 5-3 5z" 
        fill="#fff" opacity="0.8"/>
  
  <!-- Sparkles -->
  <circle cx="8" cy="8" r="1" fill="url(#sparkleGradient)"/>
  <circle cx="24" cy="24" r="1" fill="url(#sparkleGradient)"/>
  <circle cx="6" cy="24" r="0.5" fill="url(#sparkleGradient)" opacity="0.8"/>
  <circle cx="26" cy="10" r="0.5" fill="url(#sparkleGradient)" opacity="0.8"/>
</svg>
